{
  "accessors": [
    {
      "bufferView": 1,
      "componentType": 5126,
      "count": 28884,
      "max": [
        46.09199905395508,
        -69.0,
        48.30699920654297
      ],
      "min": [
        -70.0,
        -144.0,
        -151.0
      ],
      "type": "VEC3"
    },
    {
      "bufferView": 1,
      "byteOffset": 346608,
      "componentType": 5126,
      "count": 28884,
      "max": [
        1.0,
        1.0,
        1.0
      ],
      "min": [
        -1.0,
        -1.0,
        -1.0
      ],
      "type": "VEC3"
    },
    {
      "bufferView": 0,
      "componentType": 5125,
      "count": 135777,
      "type": "SCALAR"
    },
    {
      "bufferView": 1,
      "byteOffset": 693216,
      "componentType": 5126,
      "count": 2600,
      "max": [
        -0.17100000381469727,
        -22.44099998474121,
        102.0
      ],
      "min": [
        -96.0,
        -66.84200286865234,
        2.0
      ],
      "type": "VEC3"
    },
    {
      "bufferView": 1,
      "byteOffset": 724416,
      "componentType": 5126,
      "count": 2600,
      "max": [
        0.997356116771698,
        0.9988390803337097,
        0.999118447303772
      ],
      "min": [
        -0.9989543557167053,
        -0.9996740221977234,
        -0.999839186668396
      ],
      "type": "VEC3"
    },
    {
      "bufferView": 0,
      "byteOffset": 543108,
      "componentType": 5125,
      "count": 11928,
      "type": "SCALAR"
    },
    {
      "bufferView": 1,
      "byteOffset": 755616,
      "componentType": 5126,
      "count": 1569,
      "max": [
        120.0,
        -28.0,
        31.0
      ],
      "min": [
        -30.0,
        -178.0,
        -119.0
      ],
      "type": "VEC3"
    },
    {
      "bufferView": 1,
      "byteOffset": 774444,
      "componentType": 5126,
      "count": 1569,
      "max": [
        1.0,
        1.0,
        0.9999995231628418
      ],
      "min": [
        -0.9994720220565796,
        -1.0,
        -1.0
      ],
      "type": "VEC3"
    },
    {
      "bufferView": 0,
      "byteOffset": 590820,
      "componentType": 5125,
      "count": 6477,
      "type": "SCALAR"
    }
  ],
  "asset": {
    "extras": {
      "author": "allisondeboy (https://sketchfab.com/allisondeboy)",
      "license": "CC-BY-4.0 (http://creativecommons.org/licenses/by/4.0/)",
      "source": "https://sketchfab.com/3d-models/whale-planet-aba645f3999845d496f8700abcd3defc",
      "title": "Whale Planet"
    },
    "generator": "Sketchfab-11.90.0",
    "version": "2.0"
  },
  "bufferViews": [
    {
      "buffer": 0,
      "byteLength": 616728,
      "name": "floatBufferViews",
      "target": 34963
    },
    {
      "buffer": 0,
      "byteLength": 793272,
      "byteOffset": 616728,
      "byteStride": 12,
      "name": "floatBufferViews",
      "target": 34962
    }
  ],
  "buffers": [
    {
      "byteLength": 1410000,
      "uri": "scene.bin"
    }
  ],
  "materials": [
    {
      "doubleSided": true,
      "name": "color_16448250",
      "pbrMetallicRoughness": {
        "baseColorFactor": [
          0.980392,
          0.980392,
          0.980392,
          1.0
        ],
        "metallicFactor": 0.0
      }
    },
    {
      "doubleSided": true,
      "name": "color_3888547",
      "pbrMetallicRoughness": {
        "baseColorFactor": [
          0.231373,
          0.333333,
          0.639216,
          1.0
        ],
        "metallicFactor": 0.0
      }
    },
    {
      "doubleSided": true,
      "name": "color_40919",
      "pbrMetallicRoughness": {
        "baseColorFactor": [
          0.0,
          0.623529,
          0.843137,
          1.0
        ],
        "metallicFactor": 0.0
      }
    }
  ],
  "meshes": [
    {
      "name": "Object_0",
      "primitives": [
        {
          "attributes": {
            "NORMAL": 1,
            "POSITION": 0
          },
          "indices": 2,
          "material": 0,
          "mode": 4
        }
      ]
    },
    {
      "name": "Object_1",
      "primitives": [
        {
          "attributes": {
            "NORMAL": 4,
            "POSITION": 3
          },
          "indices": 5,
          "material": 1,
          "mode": 4
        }
      ]
    },
    {
      "name": "Object_2",
      "primitives": [
        {
          "attributes": {
            "NORMAL": 7,
            "POSITION": 6
          },
          "indices": 8,
          "material": 2,
          "mode": 4
        }
      ]
    }
  ],
  "nodes": [
    {
      "children": [
        1
      ],
      "matrix": [
        1.0,
        0.0,
        0.0,
        0.0,
        0.0,
        -1.0,
        -4.440892098500626e-16,
        0.0,
        0.0,
        4.440892098500626e-16,
        -1.0,
        0.0,
        0.0,
        -124.72057342529298,
        75.72045135498044,
        1.0
      ],
      "name": "Sketchfab_model"
    },
    {
      "children": [
        2,
        3,
        4
      ],
      "name": "tinker.obj.cleaner.materialmerger.gles"
    },
    {
      "mesh": 0,
      "name": "Object_2"
    },
    {
      "mesh": 1,
      "name": "Object_3"
    },
    {
      "mesh": 2,
      "name": "Object_4"
    }
  ],
  "scene": 0,
  "scenes": [
    {
      "name": "Sketchfab_Scene",
      "nodes": [
        0
      ]
    }
  ]
}
