{
  "accessors": [
    {
      "bufferView": 1,
      "componentType": 5126,
      "count": 402,
      "max": [
        48.000999450683594,
        -4.000999927520752,
        15.0
      ],
      "min": [
        -36.16899871826172,
        -37.624000549316406,
        6.0
      ],
      "type": "VEC3"
    },
    {
      "bufferView": 1,
      "byteOffset": 4824,
      "componentType": 5126,
      "count": 402,
      "max": [
        1.0,
        1.0,
        1.0
      ],
      "min": [
        -1.0,
        -1.0,
        -1.0
      ],
      "type": "VEC3"
    },
    {
      "bufferView": 0,
      "componentType": 5125,
      "count": 972,
      "type": "SCALAR"
    },
    {
      "bufferView": 1,
      "byteOffset": 9648,
      "componentType": 5126,
      "count": 13472,
      "max": [
        68.0,
        -8.0,
        -52.0
      ],
      "min": [
        -42.0,
        -23.0,
        -57.0
      ],
      "type": "VEC3"
    },
    {
      "bufferView": 1,
      "byteOffset": 171312,
      "componentType": 5126,
      "count": 13472,
      "max": [
        1.0,
        1.0,
        1.0
      ],
      "min": [
        -1.0,
        -1.0,
        -1.0
      ],
      "type": "VEC3"
    },
    {
      "bufferView": 0,
      "byteOffset": 3888,
      "componentType": 5125,
      "count": 39600,
      "type": "SCALAR"
    }
  ],
  "asset": {
    "extras": {
      "author": "allisondeboy (https://sketchfab.com/allisondeboy)",
      "license": "CC-BY-4.0 (http://creativecommons.org/licenses/by/4.0/)",
      "source": "https://sketchfab.com/3d-models/lost-bernie-44ac3620d0c54c4aad143b848848f003",
      "title": "Lost Bernie"
    },
    "generator": "Sketchfab-11.90.0",
    "version": "2.0"
  },
  "bufferViews": [
    {
      "buffer": 0,
      "byteLength": 162288,
      "name": "floatBufferViews",
      "target": 34963
    },
    {
      "buffer": 0,
      "byteLength": 332976,
      "byteOffset": 162288,
      "byteStride": 12,
      "name": "floatBufferViews",
      "target": 34962
    }
  ],
  "buffers": [
    {
      "byteLength": 495264,
      "uri": "scene.bin"
    }
  ],
  "materials": [
    {
      "doubleSided": true,
      "name": "color_4634441",
      "pbrMetallicRoughness": {
        "baseColorFactor": [
          0.27451,
          0.717647,
          0.286275,
          1.0
        ],
        "metallicFactor": 0.0
      }
    },
    {
      "doubleSided": true,
      "name": "color_8273816",
      "pbrMetallicRoughness": {
        "baseColorFactor": [
          0.494118,
          0.247059,
          0.596078,
          1.0
        ],
        "metallicFactor": 0.0
      }
    }
  ],
  "meshes": [
    {
      "name": "Object_0",
      "primitives": [
        {
          "attributes": {
            "NORMAL": 1,
            "POSITION": 0
          },
          "indices": 2,
          "material": 0,
          "mode": 4
        }
      ]
    },
    {
      "name": "Object_1",
      "primitives": [
        {
          "attributes": {
            "NORMAL": 4,
            "POSITION": 3
          },
          "indices": 5,
          "material": 1,
          "mode": 4
        }
      ]
    }
  ],
  "nodes": [
    {
      "children": [
        1
      ],
      "matrix": [
        1.0,
        0.0,
        0.0,
        0.0,
        0.0,
        2.220446049250313e-16,
        -1.0,
        0.0,
        0.0,
        1.0,
        2.220446049250313e-16,
        0.0,
        0.0,
        0.0,
        0.0,
        1.0
      ],
      "name": "Sketchfab_model"
    },
    {
      "children": [
        2,
        3
      ],
      "name": "tinker.obj.cleaner.materialmerger.gles"
    },
    {
      "mesh": 0,
      "name": "Object_2"
    },
    {
      "mesh": 1,
      "name": "Object_3"
    }
  ],
  "scene": 0,
  "scenes": [
    {
      "name": "Sketchfab_Scene",
      "nodes": [
        0
      ]
    }
  ]
}
